<?xml version="1.0" standalone="no"?>
<!DOCTYPE svg PUBLIC "-//W3C//DTD SVG 20010904//EN"
 "http://www.w3.org/TR/2001/REC-SVG-20010904/DTD/svg10.dtd">
<svg version="1.0" xmlns="http://www.w3.org/2000/svg"
 width="640.000000pt" height="1280.000000pt" viewBox="0 0 640.000000 1280.000000"
 preserveAspectRatio="xMidYMid meet">
<metadata>
Created by potrace 1.15, written by Peter Selinger 2001-2017
</metadata>
<g transform="translate(0.000000,1280.000000) scale(0.100000,-0.100000)"
fill="#000000" stroke="none">
<path d="M2757 12413 c4 -214 8 -535 8 -715 0 -325 0 -327 -23 -355 -54 -67
-76 -149 -52 -193 6 -11 21 -30 34 -43 58 -58 41 -238 -34 -367 -23 -39 -25
-63 -9 -109 6 -18 9 -34 6 -37 -3 -3 -24 8 -48 25 -75 55 -180 38 -258 -40
-42 -42 -88 -110 -96 -142 -6 -22 -3 -28 18 -36 35 -14 47 -40 54 -122 8 -91
26 -106 103 -90 65 14 85 25 136 72 27 24 62 43 100 54 89 25 107 37 128 79
25 51 13 107 -24 116 -35 8 -38 38 -5 46 32 8 142 -21 168 -43 21 -20 22 -61
1 -84 -24 -27 -43 -88 -45 -144 -2 -96 -5 -99 -90 -105 -60 -5 -91 -13 -145
-40 -88 -45 -93 -54 -65 -120 12 -28 20 -54 17 -57 -15 -16 -71 25 -103 74
-37 59 -58 65 -108 34 -46 -28 -131 -118 -152 -159 -28 -58 -24 -195 10 -297
34 -101 34 -120 -3 -174 -26 -38 -30 -53 -30 -110 1 -66 4 -75 64 -189 16 -30
16 -36 3 -77 -18 -51 -89 -176 -111 -195 -23 -19 -20 -53 15 -138 22 -54 33
-99 36 -152 7 -104 -9 -155 -63 -206 -79 -74 -76 -122 11 -215 82 -88 99 -242
41 -378 -32 -76 -30 -105 15 -175 55 -87 53 -95 -40 -184 -44 -42 -81 -82 -81
-88 0 -22 179 -184 210 -190 16 -4 34 -12 40 -19 14 -17 -25 -51 -75 -64 -63
-17 -75 -30 -91 -106 -8 -38 -26 -88 -39 -111 -34 -58 -32 -77 16 -129 81 -88
127 -97 369 -70 238 27 394 59 544 114 95 36 145 16 195 -78 17 -32 60 -88 95
-124 111 -111 351 -307 378 -307 21 0 116 68 129 91 10 19 1 30 -85 111 -56
53 -104 107 -116 133 -27 56 -33 60 -107 73 -92 16 -193 76 -193 115 0 24 26
28 209 38 188 9 273 22 291 44 18 21 5 33 -55 50 -59 18 -81 36 -71 61 6 15
19 16 105 10 92 -7 101 -6 120 13 62 62 -17 173 -139 194 -54 10 -65 -2 -62
-71 4 -96 -9 -98 -179 -20 -41 20 -97 42 -125 51 -116 39 -342 72 -413 62 -41
-6 -43 -8 -38 -34 8 -37 -8 -51 -57 -51 -52 0 -107 33 -152 90 -56 71 -47 84
47 68 60 -11 69 -10 110 10 56 27 118 28 190 3 123 -42 178 -32 227 39 l22 34
-26 27 c-34 35 -109 76 -159 84 -53 10 -71 20 -130 72 -50 45 -120 85 -208
118 -59 22 -56 24 88 60 112 28 179 32 307 20 100 -10 278 39 278 76 0 16 -75
45 -231 90 -79 22 -152 49 -163 59 -25 24 -14 54 28 74 49 23 81 20 100 -8 11
-18 31 -28 70 -36 29 -6 125 -46 212 -89 203 -100 227 -108 259 -87 51 34 17
96 -78 144 -36 18 -76 43 -89 56 -35 35 -58 44 -128 51 -85 9 -142 35 -201 90
-80 75 -107 74 -306 -16 -185 -83 -253 -89 -253 -22 0 95 160 155 420 157 102
1 131 -2 158 -17 43 -23 169 -32 259 -18 127 20 152 45 93 95 -58 48 -145 59
-210 26 -53 -27 -61 -26 -117 18 -57 46 -108 115 -99 137 21 55 303 -35 482
-155 90 -60 119 -63 163 -19 65 65 52 116 -41 158 -35 15 -108 54 -163 85 -55
31 -111 56 -126 56 -14 0 -36 -11 -49 -25 l-23 -25 -54 31 c-45 26 -60 30 -91
24 -55 -10 -192 -77 -235 -114 -41 -37 -61 -38 -152 -6 -74 26 -79 29 -94 60
-10 20 -10 33 -3 51 11 22 15 23 119 21 75 -1 115 2 132 12 22 12 23 17 17 71
-5 40 -3 59 5 62 6 2 74 -5 150 -16 136 -20 140 -20 286 -2 81 10 153 21 160
23 46 18 -56 109 -142 127 -16 4 -68 33 -115 66 -47 33 -109 76 -139 97 l-54
38 -168 0 c-176 0 -206 7 -174 39 9 9 28 17 43 17 15 1 41 2 57 3 25 1 31 6
33 28 5 40 -21 80 -84 134 -31 27 -52 50 -47 51 15 5 153 -45 200 -72 24 -15
55 -44 69 -66 20 -33 30 -40 52 -37 22 2 27 8 26 28 0 14 -4 35 -8 48 -11 34
19 29 125 -23 51 -25 102 -45 115 -45 23 0 104 72 104 92 0 7 -32 42 -70 78
-55 51 -69 70 -64 84 6 16 16 18 68 14 76 -7 120 -28 167 -81 l36 -40 35 21
c39 24 69 76 61 101 -21 60 -121 112 -229 119 -84 5 -131 -12 -209 -77 -56
-47 -70 -50 -94 -20 -14 18 -34 23 -109 30 -147 13 -212 38 -212 81 0 19 4 20
113 13 109 -7 116 -6 170 19 59 28 158 50 295 65 46 5 86 11 89 14 21 21 -61
98 -172 162 -70 40 -78 40 -129 -4 -58 -50 -77 -56 -118 -35 -49 25 -197 180
-257 269 -58 87 -62 116 -19 148 40 30 91 16 146 -39 25 -24 50 -44 57 -44 6
0 24 23 39 51 36 65 30 91 -26 114 -59 23 -98 53 -98 75 0 27 17 34 85 35 l60
0 3 36 c2 29 -5 46 -37 90 -23 29 -41 63 -41 74 0 11 14 39 30 63 33 49 30 66
-12 88 -33 17 -68 69 -68 101 0 30 -17 38 -43 19 -12 -9 -32 -23 -45 -33 -34
-24 -50 -2 -62 87 -24 191 -1 240 137 281 56 16 78 40 64 68 -12 21 -19 24
-96 39 -28 5 -44 15 -52 32 -15 30 -18 306 -3 344 9 24 14 26 74 26 47 0 69 5
82 17 15 16 15 18 -10 40 -15 13 -35 23 -44 23 -9 0 -31 9 -48 19 -30 18 -32
22 -36 99 -4 63 -10 89 -31 125 -15 25 -27 60 -27 77 0 44 47 90 92 90 46 0
78 10 78 25 0 6 -36 51 -80 99 -90 99 -98 125 -52 168 33 32 72 48 117 48 18
0 43 9 56 20 l24 20 -28 25 c-15 14 -35 25 -43 25 -26 0 -94 40 -94 55 0 13
-28 15 -180 15 l-181 0 8 -387z m90 -2458 c30 -21 34 -51 11 -80 -36 -46 -78
-27 -78 37 0 25 6 40 18 47 23 14 24 13 49 -4z m-143 -317 c24 -34 21 -87 -6
-97 -56 -20 -89 22 -64 82 18 43 46 49 70 15z m-94 -468 c14 -25 3 -68 -20
-80 -26 -14 -83 -12 -104 3 -28 21 -15 50 34 75 55 27 76 28 90 2z m231 -219
c73 -25 130 -54 152 -79 16 -17 16 -20 2 -32 -13 -11 -25 -11 -68 0 -136 34
-249 92 -233 118 11 18 86 14 147 -7z m-274 -377 c29 -39 5 -92 -36 -79 -27 8
-93 83 -85 97 11 17 105 4 121 -18z m-29 -447 c6 -76 -53 -113 -109 -68 -20
16 -22 22 -12 44 13 28 78 68 103 64 10 -1 16 -16 18 -40z m40 -483 c29 -20
28 -42 -3 -50 -35 -9 -95 4 -102 22 -15 39 60 60 105 28z m722 -600 c59 -24
85 -84 36 -84 -22 0 -138 70 -151 91 -10 15 72 10 115 -7z m224 -76 c24 -34
20 -50 -11 -46 -28 3 -40 25 -29 54 8 20 22 17 40 -8z"/>
<path d="M3366 10168 c-20 -28 -20 -72 -1 -88 11 -9 96 -25 166 -30 3 0 23
-13 43 -29 20 -16 56 -33 79 -36 61 -11 88 -27 147 -92 87 -95 122 -111 161
-72 25 25 20 73 -16 134 -36 62 -57 76 -188 123 -349 125 -364 129 -391 90z"/>
<path d="M3491 9171 c-20 -13 -5 -47 36 -78 26 -20 47 -27 86 -28 44 -1 54 -5
79 -35 15 -19 28 -37 28 -41 0 -16 89 -49 132 -49 84 0 100 53 36 125 -37 43
-105 79 -185 100 -62 16 -190 20 -212 6z"/>
<path d="M3877 8199 c-41 -7 -82 -32 -104 -66 -12 -18 -12 -23 2 -37 9 -9 33
-16 53 -17 59 -2 86 -13 100 -43 16 -32 39 -43 55 -27 6 6 19 39 29 74 15 55
15 65 2 85 -8 12 -18 22 -22 22 -4 0 -23 4 -42 8 -19 5 -52 5 -73 1z"/>
<path d="M3352 7667 l-63 -32 -43 24 c-24 12 -52 21 -63 19 -28 -5 -28 -44 1
-71 38 -35 202 -113 276 -132 36 -9 110 -40 165 -69 135 -71 154 -77 188 -59
15 7 27 18 27 23 0 19 72 63 118 71 57 11 82 38 82 88 0 57 -73 161 -112 161
-45 0 -105 -70 -91 -105 7 -19 -12 -35 -41 -35 -10 0 -33 16 -51 36 -28 30
-42 36 -94 44 -34 5 -92 22 -128 39 -36 17 -75 31 -87 30 -11 0 -49 -14 -84
-32z"/>
<path d="M3799 6689 c-17 -17 -20 -29 -15 -58 7 -43 22 -56 87 -71 93 -22 189
11 189 65 0 30 -31 52 -102 71 -79 21 -134 18 -159 -7z"/>
<path d="M3082 6650 c-18 -4 -42 -16 -53 -26 -32 -28 -61 -93 -55 -119 3 -12
33 -49 67 -81 99 -97 104 -111 124 -379 17 -223 34 -308 70 -345 30 -32 55
-90 55 -131 0 -53 21 -105 61 -154 27 -33 41 -62 49 -103 14 -73 33 -122 67
-175 16 -23 53 -91 83 -152 46 -91 62 -114 98 -138 33 -22 44 -38 53 -72 7
-26 30 -66 60 -102 52 -61 92 -134 104 -193 18 -84 75 -168 216 -317 60 -63
129 -142 153 -176 64 -91 181 -330 290 -595 53 -128 128 -302 166 -387 57
-124 74 -174 90 -258 10 -58 26 -131 34 -163 26 -103 30 -174 12 -243 -19 -75
-20 -113 -4 -129 7 -7 14 -52 16 -112 4 -87 1 -107 -18 -153 -13 -28 -33 -91
-46 -139 -29 -108 -65 -187 -159 -353 -41 -71 -77 -143 -81 -160 -11 -48 -65
-114 -197 -241 -128 -124 -145 -136 -317 -208 -58 -25 -156 -67 -217 -95 -150
-68 -275 -109 -369 -121 -50 -6 -92 -19 -120 -35 -51 -30 -83 -31 -209 -5
-138 28 -263 27 -360 -5 -86 -28 -103 -25 -150 25 -16 18 -62 54 -102 81 -67
46 -92 77 -78 98 10 17 -13 22 -61 11 -76 -17 -104 -2 -240 131 -66 65 -133
123 -148 129 -34 13 -56 2 -92 -45 -14 -19 -30 -35 -34 -35 -4 0 -6 46 -3 103
5 101 5 102 -26 147 -25 36 -31 55 -31 98 0 52 -7 70 -87 216 -17 32 -22 58
-23 116 0 64 -4 81 -25 112 -31 45 -31 59 -3 107 27 47 20 81 -27 128 -55 55
-101 39 -116 -42 -11 -60 -14 -63 -39 -40 -37 33 -34 51 29 178 33 67 65 148
71 179 12 60 51 128 89 154 13 9 36 37 52 62 33 53 37 103 13 172 -13 37 -13
55 -4 110 24 138 79 292 206 567 87 189 129 310 142 409 11 82 37 137 99 213
63 78 91 137 107 234 18 102 42 164 68 178 16 9 19 17 14 41 -7 34 13 84 63
163 31 49 63 141 76 220 5 26 18 50 39 70 40 37 56 66 56 97 0 41 19 93 57
153 63 102 93 167 93 199 0 17 22 75 50 131 44 87 50 105 45 141 -4 28 -1 46
7 55 32 34 39 51 48 120 5 41 18 94 29 119 14 31 22 80 27 154 8 118 19 142
61 131 37 -9 63 3 63 30 0 41 -146 215 -181 215 -6 0 -23 -14 -37 -31 -48 -57
-62 -69 -78 -69 -28 0 -12 85 34 184 46 97 50 116 26 116 -27 0 -134 -58 -229
-124 -120 -83 -133 -109 -146 -282 -14 -198 -28 -272 -64 -349 -18 -38 -56
-140 -85 -225 -28 -85 -82 -220 -120 -300 -37 -80 -73 -170 -80 -200 -14 -66
-30 -110 -40 -110 -14 0 -33 -57 -40 -126 -11 -90 -37 -167 -111 -328 -33 -70
-66 -153 -74 -183 -15 -58 -28 -81 -115 -213 -66 -98 -110 -182 -110 -207 0
-24 -52 -133 -88 -186 -84 -121 -138 -270 -177 -488 -26 -144 -57 -247 -126
-421 -71 -180 -149 -519 -149 -651 0 -41 9 -113 20 -159 11 -46 38 -194 60
-329 48 -299 64 -368 96 -428 13 -25 24 -58 24 -73 0 -45 18 -76 59 -105 25
-18 45 -43 55 -69 9 -22 55 -91 102 -153 108 -143 151 -209 159 -243 5 -19 20
-33 48 -48 23 -11 98 -70 167 -130 120 -106 278 -222 330 -242 14 -6 50 -16
80 -24 30 -8 102 -33 159 -55 57 -23 189 -70 292 -105 l187 -64 84 39 c91 43
186 71 241 71 56 0 294 46 512 100 230 56 269 68 385 119 47 21 106 46 132 55
89 32 312 219 526 440 132 137 169 185 295 386 151 241 178 309 201 513 9 75
23 156 31 180 22 63 18 192 -14 547 -16 173 -33 356 -36 405 -15 207 -48 293
-176 465 -39 52 -87 127 -106 167 -19 39 -64 106 -99 150 -178 217 -196 246
-188 307 4 33 -1 51 -24 91 -30 50 -53 68 -104 79 -36 8 -98 63 -98 87 0 16 7
19 43 19 50 0 114 16 123 32 9 14 -31 48 -56 48 -24 0 -135 119 -197 212 -48
72 -75 130 -87 189 -10 49 -69 123 -115 146 -63 32 -75 46 -126 144 -56 109
-77 125 -135 108 -60 -18 -65 -8 -50 94 18 117 11 162 -35 228 -36 52 -37 56
-31 118 l5 63 -44 -6 c-90 -14 -109 24 -135 280 -19 186 -29 222 -71 244 -21
12 -30 2 -44 -55 -13 -48 -44 -59 -69 -23 -35 49 -11 102 92 201 l50 49 -64
59 c-78 73 -169 132 -235 154 -52 18 -89 54 -89 89 0 52 -11 66 -49 65 -20 -1
-51 -5 -69 -9z m-252 -723 c0 -15 -55 -69 -87 -86 -29 -15 -73 -14 -73 2 0 21
30 57 64 78 36 22 96 26 96 6z m-1272 -3384 c2 -15 -11 -37 -39 -68 -23 -25
-45 -45 -50 -45 -16 0 -10 75 8 100 22 33 34 41 58 38 12 -2 21 -12 23 -25z"/>
</g>
</svg>
